<svg xmlns="http://www.w3.org/2000/svg" width="159" height="32" fill="none"><path fill="url(#a)" fill-rule="evenodd" d="M21.236.549c2.782.846 4.804 2.167 6.768 4.42 2.85 3.268 4.196 7.295 3.972 11.88-.217 4.441-1.817 8.133-4.809 11.091-1.999 1.978-4.707 3.39-7.399 3.861-.677.118-4.803.197-10.404.198L.08 32v-5.559l4.538-4.93 4.537-4.93-4.605-5.014C1.67 8.43-.034 6.44.001 6.25c.03-.167.06-1.641.067-3.276L.081 0l9.887.064c9.612.062 9.925.076 11.268.485Zm-9.623 10.626c3.821 4.175 4.183 4.626 4.183 5.21 0 .584-.349 1.023-3.928 4.946l-3.93 4.305 5.095-.082c4.673-.076 5.18-.116 6.117-.487 1.392-.552 2.296-1.162 3.155-2.129 1.632-1.837 2.471-4.191 2.471-6.928 0-4.551-2.35-8.044-6.137-9.118-.801-.227-2.093-.288-6.112-.288H7.43l4.183 4.57Z" clip-rule="evenodd"/><path fill="#fff" d="M37.608 25V8.68h5.928c5.112 0 8.304 3.096 8.304 8.184 0 5.088-3.192 8.136-8.304 8.136h-5.928Zm5.928-2.616c3.144 0 5.016-2.04 5.016-5.52 0-3.504-1.872-5.568-5.016-5.568h-2.688v11.088h2.688ZM65.834 20.8c-.696 2.976-3 4.56-6.072 4.56-3.888 0-6.264-2.568-6.264-6.768 0-4.368 2.4-6.816 6.144-6.816 3.768 0 6.096 2.544 6.096 6.696v.72h-9.072c.144 2.352 1.224 3.648 3.096 3.648 1.44 0 2.424-.672 2.832-2.04h3.24Zm-6.192-6.504c-1.632 0-2.616 1.032-2.904 2.976h5.784c-.288-1.92-1.272-2.976-2.88-2.976ZM70.763 25l-4.632-12.864h3.312l2.976 9.072.336 1.392.312-1.392 2.976-9.072h3.144L74.555 25h-3.792Zm12.595-12.216c0 3.912 9.768.744 9.768 7.416 0 3.288-2.688 5.16-6.384 5.16-3.72 0-6.36-1.728-6.984-5.28h3.384c.408 1.728 1.656 2.688 3.624 2.688 2.016 0 3.048-.84 3.048-2.16 0-4.152-9.744-1.032-9.744-7.536 0-2.592 2.136-4.752 6-4.752 3.288 0 6.072 1.584 6.6 5.256h-3.432c-.384-1.824-1.512-2.664-3.264-2.664-1.632 0-2.616.744-2.616 1.872Zm12.1 8.208v-6.48h-1.656v-2.376h1.656V9.184h3.072v2.952h2.712v2.376H98.53v6.216c0 1.344.384 2.064 2.088 2.064h.576v2.256c-.336.168-1.032.312-1.872.312-2.616 0-3.864-1.488-3.864-4.368ZM102.802 25V12.136h3.072v1.872c.84-1.536 2.136-2.232 3.528-2.232.528 0 1.008.144 1.248.36V14.8c-.408-.12-.864-.168-1.416-.168-2.328 0-3.36 1.392-3.36 3.528V25h-3.072Zm20.73-4.2c-.696 2.976-3 4.56-6.072 4.56-3.888 0-6.264-2.568-6.264-6.768 0-4.368 2.4-6.816 6.144-6.816 3.768 0 6.096 2.544 6.096 6.696v.72h-9.072c.144 2.352 1.224 3.648 3.096 3.648 1.44 0 2.424-.672 2.832-2.04h3.24Zm-6.192-6.504c-1.632 0-2.616 1.032-2.904 2.976h5.784c-.288-1.92-1.272-2.976-2.88-2.976Zm11.138 2.064h-3.096c.408-2.856 2.496-4.584 5.736-4.584 3.576 0 5.4 2.112 5.4 5.088v4.992c0 1.584.144 2.472.384 3.144h-3.192c-.168-.432-.24-1.056-.264-1.752-1.056 1.488-2.64 2.112-4.176 2.112-2.52 0-4.32-1.248-4.32-3.72 0-1.752.984-3.072 2.952-3.72 1.704-.576 3.36-.72 5.52-.744v-.312c0-1.656-.792-2.544-2.496-2.544-1.464 0-2.256.816-2.448 2.04Zm-.432 5.112c0 .984.768 1.608 2.016 1.608 1.896 0 3.36-1.536 3.36-3.456v-.552c-4.368.072-5.376 1.104-5.376 2.4ZM139.207 25V12.136h3.072v1.656c.816-1.344 2.064-2.016 3.576-2.016 1.632 0 2.904.72 3.552 2.184.864-1.464 2.232-2.184 3.888-2.184 2.472 0 4.152 1.536 4.152 4.656V25h-3.072v-7.944c0-1.752-.648-2.736-2.016-2.736-1.536 0-2.496 1.488-2.496 3.216V25h-3.072v-7.944c0-1.752-.648-2.736-2.016-2.736-1.536 0-2.496 1.488-2.496 3.216V25h-3.072Z"/><defs><linearGradient id="a" x1="0" x2="34.241" y1="29.091" y2="2.934" gradientUnits="userSpaceOnUse"><stop stop-color="#0184EF"/><stop offset=".512" stop-color="#03D3E2"/><stop offset="1" stop-color="#0184EF"/></linearGradient></defs></svg>